<mxfile host="app.diagrams.net" modified="2021-11-12T13:04:07.003Z" agent="5.0 (X11)" etag="4nT_TC7FsCT6jJPR1VAq" version="15.7.3" type="github">
  <diagram id="Yevh-g8nTKUBOGGr0oUq" name="Page-1">
    <mxGraphModel dx="2500" dy="872" grid="1" gridSize="10" guides="1" tooltips="1" connect="1" arrows="1" fold="1" page="1" pageScale="1" pageWidth="827" pageHeight="1169" math="0" shadow="0">
      <root>
        <mxCell id="gkHT4bu3b0f0jtjOqA4o-0" />
        <mxCell id="gkHT4bu3b0f0jtjOqA4o-1" parent="gkHT4bu3b0f0jtjOqA4o-0" />
        <mxCell id="8inwFE-MQz8HEBYmpQ9X-0" value="" style="shape=table;html=1;whiteSpace=wrap;startSize=0;container=1;collapsible=0;childLayout=tableLayout;spacingTop=0;rowLines=0;" parent="gkHT4bu3b0f0jtjOqA4o-1" vertex="1">
          <mxGeometry x="940" y="220" width="513" height="246" as="geometry" />
        </mxCell>
        <mxCell id="8inwFE-MQz8HEBYmpQ9X-1" value="" style="shape=partialRectangle;html=1;whiteSpace=wrap;collapsible=0;dropTarget=0;pointerEvents=0;fillColor=none;top=0;left=0;bottom=0;right=0;points=[[0,0.5],[1,0.5]];portConstraint=eastwest;perimeterSpacing=2;strokeWidth=5;" parent="8inwFE-MQz8HEBYmpQ9X-0" vertex="1">
          <mxGeometry width="513" height="38" as="geometry" />
        </mxCell>
        <mxCell id="8inwFE-MQz8HEBYmpQ9X-2" value="&lt;b&gt;Dataset&lt;/b&gt;" style="shape=partialRectangle;html=1;whiteSpace=wrap;connectable=0;fillColor=none;top=0;left=0;bottom=1;right=0;overflow=hidden;" parent="8inwFE-MQz8HEBYmpQ9X-1" vertex="1">
          <mxGeometry width="257" height="38" as="geometry">
            <mxRectangle width="257" height="38" as="alternateBounds" />
          </mxGeometry>
        </mxCell>
        <mxCell id="8inwFE-MQz8HEBYmpQ9X-3" value="&lt;b&gt;Format&lt;/b&gt;" style="shape=partialRectangle;html=1;whiteSpace=wrap;connectable=0;fillColor=none;top=0;left=0;bottom=1;right=0;overflow=hidden;sketch=0;" parent="8inwFE-MQz8HEBYmpQ9X-1" vertex="1">
          <mxGeometry x="257" width="256" height="38" as="geometry">
            <mxRectangle width="256" height="38" as="alternateBounds" />
          </mxGeometry>
        </mxCell>
        <mxCell id="8inwFE-MQz8HEBYmpQ9X-4" style="shape=partialRectangle;html=1;whiteSpace=wrap;collapsible=0;dropTarget=0;pointerEvents=0;fillColor=none;top=0;left=0;bottom=0;right=0;points=[[0,0.5],[1,0.5]];portConstraint=eastwest;strokeColor=none;" parent="8inwFE-MQz8HEBYmpQ9X-0" vertex="1">
          <mxGeometry y="38" width="513" height="24" as="geometry" />
        </mxCell>
        <mxCell id="8inwFE-MQz8HEBYmpQ9X-5" value="" style="shape=partialRectangle;html=1;whiteSpace=wrap;connectable=0;fillColor=none;top=0;left=0;bottom=0;right=0;overflow=hidden;strokeColor=none;" parent="8inwFE-MQz8HEBYmpQ9X-4" vertex="1">
          <mxGeometry width="257" height="24" as="geometry">
            <mxRectangle width="257" height="24" as="alternateBounds" />
          </mxGeometry>
        </mxCell>
        <mxCell id="8inwFE-MQz8HEBYmpQ9X-6" value="" style="shape=partialRectangle;html=1;whiteSpace=wrap;connectable=0;fillColor=none;top=0;left=0;bottom=0;right=0;overflow=hidden;strokeColor=none;" parent="8inwFE-MQz8HEBYmpQ9X-4" vertex="1">
          <mxGeometry x="257" width="256" height="24" as="geometry">
            <mxRectangle width="256" height="24" as="alternateBounds" />
          </mxGeometry>
        </mxCell>
        <mxCell id="8inwFE-MQz8HEBYmpQ9X-7" value="" style="shape=partialRectangle;html=1;whiteSpace=wrap;collapsible=0;dropTarget=0;pointerEvents=0;fillColor=none;top=0;left=0;bottom=0;right=0;points=[[0,0.5],[1,0.5]];portConstraint=eastwest;strokeColor=none;" parent="8inwFE-MQz8HEBYmpQ9X-0" vertex="1">
          <mxGeometry y="62" width="513" height="25" as="geometry" />
        </mxCell>
        <mxCell id="8inwFE-MQz8HEBYmpQ9X-8" value="" style="shape=partialRectangle;html=1;whiteSpace=wrap;connectable=0;fillColor=none;top=0;left=0;bottom=0;right=0;overflow=hidden;strokeColor=none;" parent="8inwFE-MQz8HEBYmpQ9X-7" vertex="1">
          <mxGeometry width="257" height="25" as="geometry">
            <mxRectangle width="257" height="25" as="alternateBounds" />
          </mxGeometry>
        </mxCell>
        <mxCell id="8inwFE-MQz8HEBYmpQ9X-9" value="" style="shape=partialRectangle;html=1;whiteSpace=wrap;connectable=0;fillColor=none;top=0;left=0;bottom=0;right=0;overflow=hidden;strokeColor=none;" parent="8inwFE-MQz8HEBYmpQ9X-7" vertex="1">
          <mxGeometry x="257" width="256" height="25" as="geometry">
            <mxRectangle width="256" height="25" as="alternateBounds" />
          </mxGeometry>
        </mxCell>
        <mxCell id="8inwFE-MQz8HEBYmpQ9X-31" style="shape=partialRectangle;html=1;whiteSpace=wrap;collapsible=0;dropTarget=0;pointerEvents=0;fillColor=none;top=0;left=0;bottom=0;right=0;points=[[0,0.5],[1,0.5]];portConstraint=eastwest;strokeColor=none;" parent="8inwFE-MQz8HEBYmpQ9X-0" vertex="1">
          <mxGeometry y="87" width="513" height="26" as="geometry" />
        </mxCell>
        <mxCell id="8inwFE-MQz8HEBYmpQ9X-32" value="" style="shape=partialRectangle;html=1;whiteSpace=wrap;connectable=0;fillColor=none;top=0;left=0;bottom=0;right=0;overflow=hidden;strokeColor=none;" parent="8inwFE-MQz8HEBYmpQ9X-31" vertex="1">
          <mxGeometry width="257" height="26" as="geometry">
            <mxRectangle width="257" height="26" as="alternateBounds" />
          </mxGeometry>
        </mxCell>
        <mxCell id="8inwFE-MQz8HEBYmpQ9X-33" value="" style="shape=partialRectangle;html=1;whiteSpace=wrap;connectable=0;fillColor=none;top=0;left=0;bottom=0;right=0;overflow=hidden;strokeColor=none;" parent="8inwFE-MQz8HEBYmpQ9X-31" vertex="1">
          <mxGeometry x="257" width="256" height="26" as="geometry">
            <mxRectangle width="256" height="26" as="alternateBounds" />
          </mxGeometry>
        </mxCell>
        <mxCell id="8inwFE-MQz8HEBYmpQ9X-52" style="shape=partialRectangle;html=1;whiteSpace=wrap;collapsible=0;dropTarget=0;pointerEvents=0;fillColor=none;top=0;left=0;bottom=0;right=0;points=[[0,0.5],[1,0.5]];portConstraint=eastwest;strokeColor=none;" parent="8inwFE-MQz8HEBYmpQ9X-0" vertex="1">
          <mxGeometry y="113" width="513" height="21" as="geometry" />
        </mxCell>
        <mxCell id="8inwFE-MQz8HEBYmpQ9X-53" style="shape=partialRectangle;html=1;whiteSpace=wrap;connectable=0;fillColor=none;top=0;left=0;bottom=0;right=0;overflow=hidden;strokeColor=none;" parent="8inwFE-MQz8HEBYmpQ9X-52" vertex="1">
          <mxGeometry width="257" height="21" as="geometry">
            <mxRectangle width="257" height="21" as="alternateBounds" />
          </mxGeometry>
        </mxCell>
        <mxCell id="8inwFE-MQz8HEBYmpQ9X-54" style="shape=partialRectangle;html=1;whiteSpace=wrap;connectable=0;fillColor=none;top=0;left=0;bottom=0;right=0;overflow=hidden;strokeColor=none;" parent="8inwFE-MQz8HEBYmpQ9X-52" vertex="1">
          <mxGeometry x="257" width="256" height="21" as="geometry">
            <mxRectangle width="256" height="21" as="alternateBounds" />
          </mxGeometry>
        </mxCell>
        <mxCell id="8inwFE-MQz8HEBYmpQ9X-49" style="shape=partialRectangle;html=1;whiteSpace=wrap;collapsible=0;dropTarget=0;pointerEvents=0;fillColor=none;top=0;left=0;bottom=0;right=0;points=[[0,0.5],[1,0.5]];portConstraint=eastwest;strokeColor=none;" parent="8inwFE-MQz8HEBYmpQ9X-0" vertex="1">
          <mxGeometry y="134" width="513" height="42" as="geometry" />
        </mxCell>
        <mxCell id="8inwFE-MQz8HEBYmpQ9X-50" value="" style="shape=partialRectangle;html=1;whiteSpace=wrap;connectable=0;fillColor=none;top=0;left=0;bottom=0;right=0;overflow=hidden;strokeColor=none;" parent="8inwFE-MQz8HEBYmpQ9X-49" vertex="1">
          <mxGeometry width="257" height="42" as="geometry">
            <mxRectangle width="257" height="42" as="alternateBounds" />
          </mxGeometry>
        </mxCell>
        <mxCell id="8inwFE-MQz8HEBYmpQ9X-51" value="" style="shape=partialRectangle;html=1;whiteSpace=wrap;connectable=0;fillColor=none;top=0;left=0;bottom=0;right=0;overflow=hidden;strokeColor=none;" parent="8inwFE-MQz8HEBYmpQ9X-49" vertex="1">
          <mxGeometry x="257" width="256" height="42" as="geometry">
            <mxRectangle width="256" height="42" as="alternateBounds" />
          </mxGeometry>
        </mxCell>
        <mxCell id="8inwFE-MQz8HEBYmpQ9X-55" style="shape=partialRectangle;html=1;whiteSpace=wrap;collapsible=0;dropTarget=0;pointerEvents=0;fillColor=none;top=0;left=0;bottom=0;right=0;points=[[0,0.5],[1,0.5]];portConstraint=eastwest;strokeColor=none;" parent="8inwFE-MQz8HEBYmpQ9X-0" vertex="1">
          <mxGeometry y="176" width="513" height="35" as="geometry" />
        </mxCell>
        <mxCell id="8inwFE-MQz8HEBYmpQ9X-56" value="" style="shape=partialRectangle;html=1;whiteSpace=wrap;connectable=0;fillColor=none;top=0;left=0;bottom=0;right=0;overflow=hidden;strokeColor=none;" parent="8inwFE-MQz8HEBYmpQ9X-55" vertex="1">
          <mxGeometry width="257" height="35" as="geometry">
            <mxRectangle width="257" height="35" as="alternateBounds" />
          </mxGeometry>
        </mxCell>
        <mxCell id="8inwFE-MQz8HEBYmpQ9X-57" value="" style="shape=partialRectangle;html=1;whiteSpace=wrap;connectable=0;fillColor=none;top=0;left=0;bottom=0;right=0;overflow=hidden;strokeColor=none;" parent="8inwFE-MQz8HEBYmpQ9X-55" vertex="1">
          <mxGeometry x="257" width="256" height="35" as="geometry">
            <mxRectangle width="256" height="35" as="alternateBounds" />
          </mxGeometry>
        </mxCell>
        <mxCell id="gCH6ENwvgg4EW8MtBop_-14" style="shape=partialRectangle;html=1;whiteSpace=wrap;collapsible=0;dropTarget=0;pointerEvents=0;fillColor=none;top=0;left=0;bottom=0;right=0;points=[[0,0.5],[1,0.5]];portConstraint=eastwest;strokeColor=none;" parent="8inwFE-MQz8HEBYmpQ9X-0" vertex="1">
          <mxGeometry y="211" width="513" height="35" as="geometry" />
        </mxCell>
        <mxCell id="gCH6ENwvgg4EW8MtBop_-15" value="" style="shape=partialRectangle;html=1;whiteSpace=wrap;connectable=0;fillColor=none;top=0;left=0;bottom=0;right=0;overflow=hidden;strokeColor=none;" parent="gCH6ENwvgg4EW8MtBop_-14" vertex="1">
          <mxGeometry width="257" height="35" as="geometry">
            <mxRectangle width="257" height="35" as="alternateBounds" />
          </mxGeometry>
        </mxCell>
        <mxCell id="gCH6ENwvgg4EW8MtBop_-16" value="" style="shape=partialRectangle;html=1;whiteSpace=wrap;connectable=0;fillColor=none;top=0;left=0;bottom=0;right=0;overflow=hidden;strokeColor=none;" parent="gCH6ENwvgg4EW8MtBop_-14" vertex="1">
          <mxGeometry x="257" width="256" height="35" as="geometry">
            <mxRectangle width="256" height="35" as="alternateBounds" />
          </mxGeometry>
        </mxCell>
        <mxCell id="8inwFE-MQz8HEBYmpQ9X-48" value="Notes:&lt;br&gt;*Optional datasets&lt;br&gt;+Data converted to .asci grid format from .shp, so potential to accept raster datasets if using the same griding scale. E.g. 100x100m" style="text;html=1;strokeColor=none;fillColor=none;align=left;verticalAlign=top;whiteSpace=wrap;rounded=0;" parent="gkHT4bu3b0f0jtjOqA4o-1" vertex="1">
          <mxGeometry x="960" y="520" width="460" height="100" as="geometry" />
        </mxCell>
        <mxCell id="8inwFE-MQz8HEBYmpQ9X-63" value="Buildings" style="shape=parallelogram;html=1;strokeWidth=2;perimeter=parallelogramPerimeter;whiteSpace=wrap;rounded=1;arcSize=12;size=0.23;" parent="gkHT4bu3b0f0jtjOqA4o-1" vertex="1">
          <mxGeometry x="278.79999999999995" y="562.5" width="105.47" height="57.5" as="geometry" />
        </mxCell>
        <mxCell id="VNxaeYcz-5pTjhsVP7Z5-8" style="edgeStyle=orthogonalEdgeStyle;rounded=0;orthogonalLoop=1;jettySize=auto;html=1;exitX=0;exitY=0.5;exitDx=0;exitDy=0;entryX=1;entryY=0.5;entryDx=0;entryDy=0;" parent="gkHT4bu3b0f0jtjOqA4o-1" source="h1XzxMuwDs4KBAgj8WON-16" edge="1" target="h1XzxMuwDs4KBAgj8WON-13">
          <mxGeometry relative="1" as="geometry">
            <mxPoint x="407" y="309" as="targetPoint" />
          </mxGeometry>
        </mxCell>
        <mxCell id="12xH_gXyC0JP7orOwCKg-43" value="" style="shape=table;html=1;whiteSpace=wrap;startSize=0;container=1;collapsible=0;childLayout=tableLayout;" parent="gkHT4bu3b0f0jtjOqA4o-1" vertex="1">
          <mxGeometry x="970" y="50" width="390" height="140" as="geometry" />
        </mxCell>
        <mxCell id="12xH_gXyC0JP7orOwCKg-44" value="" style="shape=partialRectangle;html=1;whiteSpace=wrap;collapsible=0;dropTarget=0;pointerEvents=0;fillColor=none;top=0;left=0;bottom=0;right=0;points=[[0,0.5],[1,0.5]];portConstraint=eastwest;" parent="12xH_gXyC0JP7orOwCKg-43" vertex="1">
          <mxGeometry width="390" height="35" as="geometry" />
        </mxCell>
        <mxCell id="12xH_gXyC0JP7orOwCKg-45" value="Parameter" style="shape=partialRectangle;html=1;whiteSpace=wrap;connectable=0;overflow=hidden;fillColor=none;top=0;left=0;bottom=0;right=0;" parent="12xH_gXyC0JP7orOwCKg-44" vertex="1">
          <mxGeometry width="140" height="35" as="geometry" />
        </mxCell>
        <mxCell id="12xH_gXyC0JP7orOwCKg-46" value="Description" style="shape=partialRectangle;html=1;whiteSpace=wrap;connectable=0;overflow=hidden;fillColor=none;top=0;left=0;bottom=0;right=0;" parent="12xH_gXyC0JP7orOwCKg-44" vertex="1">
          <mxGeometry x="140" width="250" height="35" as="geometry" />
        </mxCell>
        <mxCell id="12xH_gXyC0JP7orOwCKg-47" value="" style="shape=partialRectangle;html=1;whiteSpace=wrap;collapsible=0;dropTarget=0;pointerEvents=0;fillColor=none;top=0;left=0;bottom=0;right=0;points=[[0,0.5],[1,0.5]];portConstraint=eastwest;" parent="12xH_gXyC0JP7orOwCKg-43" vertex="1">
          <mxGeometry y="35" width="390" height="35" as="geometry" />
        </mxCell>
        <mxCell id="12xH_gXyC0JP7orOwCKg-48" value="Example parameter 1" style="shape=partialRectangle;html=1;whiteSpace=wrap;connectable=0;overflow=hidden;fillColor=none;top=0;left=0;bottom=0;right=0;" parent="12xH_gXyC0JP7orOwCKg-47" vertex="1">
          <mxGeometry width="140" height="35" as="geometry" />
        </mxCell>
        <mxCell id="12xH_gXyC0JP7orOwCKg-49" value="A description for the parameter" style="shape=partialRectangle;html=1;whiteSpace=wrap;connectable=0;overflow=hidden;fillColor=none;top=0;left=0;bottom=0;right=0;" parent="12xH_gXyC0JP7orOwCKg-47" vertex="1">
          <mxGeometry x="140" width="250" height="35" as="geometry" />
        </mxCell>
        <mxCell id="12xH_gXyC0JP7orOwCKg-50" value="" style="shape=partialRectangle;html=1;whiteSpace=wrap;collapsible=0;dropTarget=0;pointerEvents=0;fillColor=none;top=0;left=0;bottom=0;right=0;points=[[0,0.5],[1,0.5]];portConstraint=eastwest;" parent="12xH_gXyC0JP7orOwCKg-43" vertex="1">
          <mxGeometry y="70" width="390" height="35" as="geometry" />
        </mxCell>
        <mxCell id="12xH_gXyC0JP7orOwCKg-51" value="" style="shape=partialRectangle;html=1;whiteSpace=wrap;connectable=0;overflow=hidden;fillColor=none;top=0;left=0;bottom=0;right=0;" parent="12xH_gXyC0JP7orOwCKg-50" vertex="1">
          <mxGeometry width="140" height="35" as="geometry" />
        </mxCell>
        <mxCell id="12xH_gXyC0JP7orOwCKg-52" value="" style="shape=partialRectangle;html=1;whiteSpace=wrap;connectable=0;overflow=hidden;fillColor=none;top=0;left=0;bottom=0;right=0;" parent="12xH_gXyC0JP7orOwCKg-50" vertex="1">
          <mxGeometry x="140" width="250" height="35" as="geometry" />
        </mxCell>
        <mxCell id="12xH_gXyC0JP7orOwCKg-53" value="" style="shape=partialRectangle;html=1;whiteSpace=wrap;collapsible=0;dropTarget=0;pointerEvents=0;fillColor=none;top=0;left=0;bottom=0;right=0;points=[[0,0.5],[1,0.5]];portConstraint=eastwest;" parent="12xH_gXyC0JP7orOwCKg-43" vertex="1">
          <mxGeometry y="105" width="390" height="35" as="geometry" />
        </mxCell>
        <mxCell id="12xH_gXyC0JP7orOwCKg-54" value="" style="shape=partialRectangle;html=1;whiteSpace=wrap;connectable=0;overflow=hidden;fillColor=none;top=0;left=0;bottom=0;right=0;" parent="12xH_gXyC0JP7orOwCKg-53" vertex="1">
          <mxGeometry width="140" height="35" as="geometry" />
        </mxCell>
        <mxCell id="12xH_gXyC0JP7orOwCKg-55" value="" style="shape=partialRectangle;html=1;whiteSpace=wrap;connectable=0;overflow=hidden;fillColor=none;top=0;left=0;bottom=0;right=0;" parent="12xH_gXyC0JP7orOwCKg-53" vertex="1">
          <mxGeometry x="140" width="250" height="35" as="geometry" />
        </mxCell>
        <mxCell id="12xH_gXyC0JP7orOwCKg-56" style="edgeStyle=orthogonalEdgeStyle;rounded=0;orthogonalLoop=1;jettySize=auto;html=1;exitX=1;exitY=0.5;exitDx=0;exitDy=0;" parent="12xH_gXyC0JP7orOwCKg-43" source="12xH_gXyC0JP7orOwCKg-47" target="12xH_gXyC0JP7orOwCKg-47" edge="1">
          <mxGeometry relative="1" as="geometry" />
        </mxCell>
        <mxCell id="ddazaEeR6ssN1BWX0ktI-8" value="Dataset" style="shape=parallelogram;html=1;strokeWidth=2;perimeter=parallelogramPerimeter;whiteSpace=wrap;rounded=1;arcSize=12;size=0.23;" parent="gkHT4bu3b0f0jtjOqA4o-1" vertex="1">
          <mxGeometry x="970" y="625" width="109.07" height="60" as="geometry" />
        </mxCell>
        <mxCell id="ddazaEeR6ssN1BWX0ktI-9" value="Model/process (already developed)" style="shape=process;whiteSpace=wrap;html=1;backgroundOutline=1;shadow=0;fontFamily=Helvetica;fontSize=12;fontColor=#000000;align=center;strokeColor=#000000;strokeWidth=1;fillColor=#ffffff;rounded=1;" parent="gkHT4bu3b0f0jtjOqA4o-1" vertex="1">
          <mxGeometry x="1110" y="620" width="130.93" height="70" as="geometry" />
        </mxCell>
        <mxCell id="ddazaEeR6ssN1BWX0ktI-10" value="Model/process not developed" style="rounded=1;whiteSpace=wrap;html=1;fontSize=12;glass=0;strokeWidth=1;shadow=0;" parent="gkHT4bu3b0f0jtjOqA4o-1" vertex="1">
          <mxGeometry x="1270" y="620" width="121.57" height="70" as="geometry" />
        </mxCell>
        <mxCell id="h1XzxMuwDs4KBAgj8WON-24" value="" style="edgeStyle=orthogonalEdgeStyle;rounded=0;orthogonalLoop=1;jettySize=auto;html=1;" edge="1" parent="gkHT4bu3b0f0jtjOqA4o-1" source="crPVwcIPL3rN5ODeDzdk-17" target="h1XzxMuwDs4KBAgj8WON-15">
          <mxGeometry relative="1" as="geometry" />
        </mxCell>
        <mxCell id="crPVwcIPL3rN5ODeDzdk-17" value="Socioeconomic data" style="shape=parallelogram;html=1;strokeWidth=2;perimeter=parallelogramPerimeter;whiteSpace=wrap;rounded=1;arcSize=12;size=0.23;" parent="gkHT4bu3b0f0jtjOqA4o-1" vertex="1">
          <mxGeometry x="2.7299999999999933" y="30" width="105.46" height="60" as="geometry" />
        </mxCell>
        <mxCell id="gCH6ENwvgg4EW8MtBop_-2" value="&lt;div&gt;UDM&lt;/div&gt;" style="shape=process;whiteSpace=wrap;html=1;backgroundOutline=1;shadow=0;fontFamily=Helvetica;fontSize=12;fontColor=#000000;align=center;strokeColor=#000000;strokeWidth=1;fillColor=#ffffff;rounded=1;" parent="gkHT4bu3b0f0jtjOqA4o-1" vertex="1">
          <mxGeometry x="266.06999999999994" y="425" width="130.93" height="70" as="geometry" />
        </mxCell>
        <mxCell id="gCH6ENwvgg4EW8MtBop_-3" style="edgeStyle=orthogonalEdgeStyle;rounded=0;orthogonalLoop=1;jettySize=auto;html=1;exitX=0.5;exitY=1;exitDx=0;exitDy=0;" parent="gkHT4bu3b0f0jtjOqA4o-1" source="gCH6ENwvgg4EW8MtBop_-2" target="8inwFE-MQz8HEBYmpQ9X-63" edge="1">
          <mxGeometry relative="1" as="geometry">
            <mxPoint x="627" y="470" as="targetPoint" />
            <mxPoint x="698.5" y="470" as="sourcePoint" />
          </mxGeometry>
        </mxCell>
        <mxCell id="gCH6ENwvgg4EW8MtBop_-18" style="edgeStyle=orthogonalEdgeStyle;rounded=0;orthogonalLoop=1;jettySize=auto;html=1;exitX=0.5;exitY=1;exitDx=0;exitDy=0;entryX=0.5;entryY=0;entryDx=0;entryDy=0;" parent="gkHT4bu3b0f0jtjOqA4o-1" source="h1XzxMuwDs4KBAgj8WON-13" target="gCH6ENwvgg4EW8MtBop_-2" edge="1">
          <mxGeometry relative="1" as="geometry">
            <mxPoint x="347" y="420" as="targetPoint" />
            <mxPoint x="342" y="320" as="sourcePoint" />
          </mxGeometry>
        </mxCell>
        <mxCell id="gCH6ENwvgg4EW8MtBop_-21" style="edgeStyle=orthogonalEdgeStyle;rounded=0;orthogonalLoop=1;jettySize=auto;html=1;exitX=0.5;exitY=1;exitDx=0;exitDy=0;entryX=0.5;entryY=0;entryDx=0;entryDy=0;" parent="gkHT4bu3b0f0jtjOqA4o-1" source="h1XzxMuwDs4KBAgj8WON-15" target="h1XzxMuwDs4KBAgj8WON-14" edge="1">
          <mxGeometry relative="1" as="geometry">
            <mxPoint x="341.53499999999985" y="435" as="targetPoint" />
            <mxPoint x="222" y="320" as="sourcePoint" />
            <Array as="points">
              <mxPoint x="55" y="280" />
              <mxPoint x="133" y="280" />
            </Array>
          </mxGeometry>
        </mxCell>
        <mxCell id="gCH6ENwvgg4EW8MtBop_-22" style="edgeStyle=orthogonalEdgeStyle;rounded=0;orthogonalLoop=1;jettySize=auto;html=1;exitX=0.5;exitY=1;exitDx=0;exitDy=0;entryX=0.25;entryY=0;entryDx=0;entryDy=0;" parent="gkHT4bu3b0f0jtjOqA4o-1" source="h1XzxMuwDs4KBAgj8WON-14" target="gCH6ENwvgg4EW8MtBop_-2" edge="1">
          <mxGeometry relative="1" as="geometry">
            <mxPoint x="341.5999999999999" y="572.5" as="targetPoint" />
            <mxPoint x="247" y="320" as="sourcePoint" />
          </mxGeometry>
        </mxCell>
        <mxCell id="h1XzxMuwDs4KBAgj8WON-0" value="Constraint layer data" style="swimlane;" vertex="1" parent="gkHT4bu3b0f0jtjOqA4o-1">
          <mxGeometry x="247" y="40" width="580" height="120" as="geometry">
            <mxRectangle x="90" y="100" width="150" height="23" as="alternateBounds" />
          </mxGeometry>
        </mxCell>
        <mxCell id="h1XzxMuwDs4KBAgj8WON-1" value="Historic conservation areas" style="shape=parallelogram;html=1;strokeWidth=2;perimeter=parallelogramPerimeter;whiteSpace=wrap;rounded=1;arcSize=12;size=0.23;" vertex="1" parent="h1XzxMuwDs4KBAgj8WON-0">
          <mxGeometry x="463.46999999999997" y="30" width="100" height="60" as="geometry" />
        </mxCell>
        <mxCell id="h1XzxMuwDs4KBAgj8WON-2" style="edgeStyle=orthogonalEdgeStyle;rounded=0;orthogonalLoop=1;jettySize=auto;html=1;entryX=0.5;entryY=1;entryDx=0;entryDy=0;" edge="1" parent="h1XzxMuwDs4KBAgj8WON-0" source="h1XzxMuwDs4KBAgj8WON-1" target="h1XzxMuwDs4KBAgj8WON-0">
          <mxGeometry relative="1" as="geometry">
            <mxPoint x="260" y="109.99999999999994" as="targetPoint" />
            <Array as="points">
              <mxPoint x="461" y="100" />
              <mxPoint x="260" y="100" />
            </Array>
          </mxGeometry>
        </mxCell>
        <mxCell id="h1XzxMuwDs4KBAgj8WON-3" style="edgeStyle=orthogonalEdgeStyle;rounded=0;orthogonalLoop=1;jettySize=auto;html=1;entryX=0.5;entryY=1;entryDx=0;entryDy=0;" edge="1" parent="h1XzxMuwDs4KBAgj8WON-0" source="h1XzxMuwDs4KBAgj8WON-4" target="h1XzxMuwDs4KBAgj8WON-0">
          <mxGeometry relative="1" as="geometry">
            <Array as="points">
              <mxPoint x="370" y="100" />
              <mxPoint x="260" y="100" />
            </Array>
          </mxGeometry>
        </mxCell>
        <mxCell id="h1XzxMuwDs4KBAgj8WON-4" value="Nature conservation areas" style="shape=parallelogram;html=1;strokeWidth=2;perimeter=parallelogramPerimeter;whiteSpace=wrap;rounded=1;arcSize=12;size=0.23;" vertex="1" parent="h1XzxMuwDs4KBAgj8WON-0">
          <mxGeometry x="372.53999999999996" y="30" width="100" height="60" as="geometry" />
        </mxCell>
        <mxCell id="h1XzxMuwDs4KBAgj8WON-5" style="edgeStyle=orthogonalEdgeStyle;rounded=0;orthogonalLoop=1;jettySize=auto;html=1;entryX=0.5;entryY=1;entryDx=0;entryDy=0;" edge="1" parent="h1XzxMuwDs4KBAgj8WON-0" source="h1XzxMuwDs4KBAgj8WON-6" target="h1XzxMuwDs4KBAgj8WON-0">
          <mxGeometry relative="1" as="geometry">
            <Array as="points">
              <mxPoint x="333" y="100" />
              <mxPoint x="290" y="100" />
            </Array>
          </mxGeometry>
        </mxCell>
        <mxCell id="h1XzxMuwDs4KBAgj8WON-6" value="Water bodies" style="shape=parallelogram;html=1;strokeWidth=2;perimeter=parallelogramPerimeter;whiteSpace=wrap;rounded=1;arcSize=12;size=0.23;" vertex="1" parent="h1XzxMuwDs4KBAgj8WON-0">
          <mxGeometry x="282.53999999999996" y="30" width="100" height="60" as="geometry" />
        </mxCell>
        <mxCell id="h1XzxMuwDs4KBAgj8WON-7" style="edgeStyle=orthogonalEdgeStyle;rounded=0;orthogonalLoop=1;jettySize=auto;html=1;entryX=0.5;entryY=1;entryDx=0;entryDy=0;" edge="1" parent="h1XzxMuwDs4KBAgj8WON-0" source="h1XzxMuwDs4KBAgj8WON-8" target="h1XzxMuwDs4KBAgj8WON-0">
          <mxGeometry relative="1" as="geometry">
            <Array as="points">
              <mxPoint x="243" y="100" />
              <mxPoint x="290" y="100" />
            </Array>
          </mxGeometry>
        </mxCell>
        <mxCell id="h1XzxMuwDs4KBAgj8WON-8" value="Green belt" style="shape=parallelogram;html=1;strokeWidth=2;perimeter=parallelogramPerimeter;whiteSpace=wrap;rounded=1;arcSize=12;size=0.23;" vertex="1" parent="h1XzxMuwDs4KBAgj8WON-0">
          <mxGeometry x="192.53999999999994" y="30" width="100" height="60" as="geometry" />
        </mxCell>
        <mxCell id="h1XzxMuwDs4KBAgj8WON-9" style="edgeStyle=orthogonalEdgeStyle;rounded=0;orthogonalLoop=1;jettySize=auto;html=1;entryX=0.5;entryY=1;entryDx=0;entryDy=0;" edge="1" parent="h1XzxMuwDs4KBAgj8WON-0" source="h1XzxMuwDs4KBAgj8WON-10" target="h1XzxMuwDs4KBAgj8WON-0">
          <mxGeometry relative="1" as="geometry">
            <Array as="points">
              <mxPoint x="157" y="100" />
              <mxPoint x="290" y="100" />
            </Array>
          </mxGeometry>
        </mxCell>
        <mxCell id="h1XzxMuwDs4KBAgj8WON-10" value="Flood areas" style="shape=parallelogram;html=1;strokeWidth=2;perimeter=parallelogramPerimeter;whiteSpace=wrap;rounded=1;arcSize=12;size=0.23;" vertex="1" parent="h1XzxMuwDs4KBAgj8WON-0">
          <mxGeometry x="106.53999999999999" y="30" width="100" height="60" as="geometry" />
        </mxCell>
        <mxCell id="h1XzxMuwDs4KBAgj8WON-11" style="edgeStyle=orthogonalEdgeStyle;rounded=0;orthogonalLoop=1;jettySize=auto;html=1;entryX=0.5;entryY=1;entryDx=0;entryDy=0;" edge="1" parent="h1XzxMuwDs4KBAgj8WON-0" source="h1XzxMuwDs4KBAgj8WON-12" target="h1XzxMuwDs4KBAgj8WON-0">
          <mxGeometry relative="1" as="geometry">
            <Array as="points">
              <mxPoint x="67" y="100" />
              <mxPoint x="290" y="100" />
            </Array>
          </mxGeometry>
        </mxCell>
        <mxCell id="h1XzxMuwDs4KBAgj8WON-12" value="Buildings" style="shape=parallelogram;html=1;strokeWidth=2;perimeter=parallelogramPerimeter;whiteSpace=wrap;rounded=1;arcSize=12;size=0.23;" vertex="1" parent="h1XzxMuwDs4KBAgj8WON-0">
          <mxGeometry x="16.539999999999942" y="30" width="100" height="60" as="geometry" />
        </mxCell>
        <mxCell id="h1XzxMuwDs4KBAgj8WON-13" value="CLIP" style="shape=process;whiteSpace=wrap;html=1;backgroundOutline=1;shadow=0;fontFamily=Helvetica;fontSize=12;fontColor=#000000;align=center;strokeColor=#000000;strokeWidth=1;fillColor=#ffffff;rounded=1;" vertex="1" parent="gkHT4bu3b0f0jtjOqA4o-1">
          <mxGeometry x="266.06999999999994" y="265" width="130.93" height="70" as="geometry" />
        </mxCell>
        <mxCell id="h1XzxMuwDs4KBAgj8WON-14" value="UDM Rasterise Zones" style="shape=process;whiteSpace=wrap;html=1;backgroundOutline=1;shadow=0;fontFamily=Helvetica;fontSize=12;fontColor=#000000;align=center;strokeColor=#000000;strokeWidth=1;fillColor=#ffffff;rounded=1;" vertex="1" parent="gkHT4bu3b0f0jtjOqA4o-1">
          <mxGeometry x="66.99999999999994" y="310" width="130.93" height="70" as="geometry" />
        </mxCell>
        <mxCell id="h1XzxMuwDs4KBAgj8WON-15" value="Extract SSPs" style="shape=process;whiteSpace=wrap;html=1;backgroundOutline=1;shadow=0;fontFamily=Helvetica;fontSize=12;fontColor=#000000;align=center;strokeColor=#000000;strokeWidth=1;fillColor=#ffffff;rounded=1;" vertex="1" parent="gkHT4bu3b0f0jtjOqA4o-1">
          <mxGeometry x="-10.000000000000057" y="190" width="130.93" height="70" as="geometry" />
        </mxCell>
        <mxCell id="h1XzxMuwDs4KBAgj8WON-16" value="Attractor layer" style="swimlane;" vertex="1" parent="gkHT4bu3b0f0jtjOqA4o-1">
          <mxGeometry x="587" y="170" width="220" height="140" as="geometry" />
        </mxCell>
        <mxCell id="h1XzxMuwDs4KBAgj8WON-17" value="&lt;div&gt;Proximity to&lt;/div&gt;&lt;div&gt;rail stations&lt;br&gt;&lt;/div&gt;" style="shape=parallelogram;html=1;strokeWidth=2;perimeter=parallelogramPerimeter;whiteSpace=wrap;rounded=1;arcSize=12;size=0.23;" vertex="1" parent="h1XzxMuwDs4KBAgj8WON-16">
          <mxGeometry x="110" y="49.21000000000001" width="100" height="60" as="geometry" />
        </mxCell>
        <mxCell id="h1XzxMuwDs4KBAgj8WON-18" value="&lt;div&gt;Proximity to&lt;/div&gt;&lt;div&gt; roads&lt;/div&gt;" style="shape=parallelogram;html=1;strokeWidth=2;perimeter=parallelogramPerimeter;whiteSpace=wrap;rounded=1;arcSize=12;size=0.23;" vertex="1" parent="h1XzxMuwDs4KBAgj8WON-16">
          <mxGeometry x="10" y="49.21000000000001" width="100" height="60" as="geometry" />
        </mxCell>
        <mxCell id="h1XzxMuwDs4KBAgj8WON-20" style="edgeStyle=orthogonalEdgeStyle;rounded=0;orthogonalLoop=1;jettySize=auto;html=1;entryX=0.5;entryY=0;entryDx=0;entryDy=0;exitX=0.5;exitY=1;exitDx=0;exitDy=0;" edge="1" parent="gkHT4bu3b0f0jtjOqA4o-1" source="h1XzxMuwDs4KBAgj8WON-0" target="h1XzxMuwDs4KBAgj8WON-13">
          <mxGeometry relative="1" as="geometry">
            <mxPoint x="627" y="470" as="targetPoint" />
            <mxPoint x="537" y="170" as="sourcePoint" />
          </mxGeometry>
        </mxCell>
        <mxCell id="h1XzxMuwDs4KBAgj8WON-29" style="edgeStyle=orthogonalEdgeStyle;rounded=0;orthogonalLoop=1;jettySize=auto;html=1;exitX=0.5;exitY=1;exitDx=0;exitDy=0;" edge="1" parent="gkHT4bu3b0f0jtjOqA4o-1" source="h1XzxMuwDs4KBAgj8WON-21" target="h1XzxMuwDs4KBAgj8WON-13">
          <mxGeometry relative="1" as="geometry">
            <Array as="points">
              <mxPoint x="185" y="190" />
              <mxPoint x="332" y="190" />
            </Array>
          </mxGeometry>
        </mxCell>
        <mxCell id="h1XzxMuwDs4KBAgj8WON-21" value="Administrative boundaries" style="shape=parallelogram;html=1;strokeWidth=2;perimeter=parallelogramPerimeter;whiteSpace=wrap;rounded=1;arcSize=12;size=0.23;" vertex="1" parent="gkHT4bu3b0f0jtjOqA4o-1">
          <mxGeometry x="130" y="110" width="110" height="60" as="geometry" />
        </mxCell>
        <mxCell id="h1XzxMuwDs4KBAgj8WON-22" style="edgeStyle=orthogonalEdgeStyle;rounded=0;orthogonalLoop=1;jettySize=auto;html=1;exitX=0.25;exitY=1;exitDx=0;exitDy=0;entryX=0.5;entryY=0;entryDx=0;entryDy=0;" edge="1" parent="gkHT4bu3b0f0jtjOqA4o-1" source="h1XzxMuwDs4KBAgj8WON-21" target="h1XzxMuwDs4KBAgj8WON-14">
          <mxGeometry relative="1" as="geometry">
            <mxPoint x="142.46500000000015" y="170" as="targetPoint" />
            <mxPoint x="117.46000000000004" y="110" as="sourcePoint" />
            <Array as="points">
              <mxPoint x="157" y="205" />
              <mxPoint x="157" y="270" />
              <mxPoint x="133" y="270" />
            </Array>
          </mxGeometry>
        </mxCell>
        <mxCell id="h1XzxMuwDs4KBAgj8WON-26" value="" style="edgeStyle=orthogonalEdgeStyle;rounded=0;orthogonalLoop=1;jettySize=auto;html=1;" edge="1" parent="gkHT4bu3b0f0jtjOqA4o-1" source="h1XzxMuwDs4KBAgj8WON-25" target="gCH6ENwvgg4EW8MtBop_-2">
          <mxGeometry relative="1" as="geometry" />
        </mxCell>
        <mxCell id="h1XzxMuwDs4KBAgj8WON-25" value="Building tiles" style="shape=parallelogram;html=1;strokeWidth=2;perimeter=parallelogramPerimeter;whiteSpace=wrap;rounded=1;arcSize=12;size=0.23;" vertex="1" parent="gkHT4bu3b0f0jtjOqA4o-1">
          <mxGeometry x="106.99999999999994" y="430" width="100" height="60" as="geometry" />
        </mxCell>
        <mxCell id="h1XzxMuwDs4KBAgj8WON-28" value="" style="edgeStyle=orthogonalEdgeStyle;rounded=0;orthogonalLoop=1;jettySize=auto;html=1;" edge="1" parent="gkHT4bu3b0f0jtjOqA4o-1" source="h1XzxMuwDs4KBAgj8WON-27" target="h1XzxMuwDs4KBAgj8WON-13">
          <mxGeometry relative="1" as="geometry" />
        </mxCell>
        <mxCell id="h1XzxMuwDs4KBAgj8WON-27" value="Density surface" style="shape=parallelogram;html=1;strokeWidth=2;perimeter=parallelogramPerimeter;whiteSpace=wrap;rounded=1;arcSize=12;size=0.23;" vertex="1" parent="gkHT4bu3b0f0jtjOqA4o-1">
          <mxGeometry x="587" y="320" width="100" height="60" as="geometry" />
        </mxCell>
      </root>
    </mxGraphModel>
  </diagram>
</mxfile>
